<svg version="1.1" id="Layer_1" xmlns="http://www.w3.org/2000/svg" xmlns:xlink="http://www.w3.org/1999/xlink" x="0px" y="0px"
	 width="30%" viewBox="0 0 400 128" enable-background="new 0 0 400 128" xml:space="preserve">
<path fill="#F1F6F9" opacity="1.000000" stroke="none" 
	d="
M26.914238,109.146530 
	C6.002705,90.250587 8.638289,56.532696 32.132408,38.768185 
	C45.482342,28.673956 60.791386,26.155966 77.026482,27.235046 
	C91.976349,28.228704 104.865685,33.362732 114.366425,45.513069 
	C117.580956,49.624073 119.890602,54.214977 121.980919,58.944183 
	C122.504982,60.129860 122.648430,61.547512 125.117592,63.213478 
	C128.413071,59.542599 131.520035,55.678978 135.039307,52.236889 
	C145.703003,41.807041 156.952332,32.158970 171.913773,28.392120 
	C176.754501,27.173368 181.699234,26.524691 186.744492,27.308496 
	C198.162033,29.082268 203.220078,37.475639 199.400467,48.432068 
	C197.102158,55.024761 192.404861,59.643459 186.929459,63.629936 
	C182.853241,66.597717 178.470566,69.439499 173.599838,70.259659 
	C165.028885,71.702896 160.416901,77.478935 155.561218,83.746468 
	C146.173004,95.864380 136.017090,107.350708 124.561577,117.606483 
	C122.987961,119.015289 121.432327,121.062592 118.966629,119.943581 
	C116.617226,118.877327 116.793114,116.389015 116.699471,114.268456 
	C116.324875,105.785797 116.060318,97.298279 115.686356,88.815590 
	C115.616150,87.223328 116.151688,85.472321 114.230621,83.340065 
	C109.597176,88.860558 105.001801,94.206459 100.553291,99.671883 
	C96.032875,105.225655 91.675499,110.911850 87.206543,116.507965 
	C85.954163,118.076218 84.567184,119.854820 82.240059,118.979683 
	C79.971161,118.126457 80.762268,115.879013 80.680870,114.169136 
	C79.960617,99.040077 79.506821,83.893684 77.688110,68.838829 
	C77.269783,65.376038 77.277962,61.397503 71.706032,63.056416 
	C70.384293,63.449936 69.012253,62.813278 68.591476,61.240192 
	C68.190063,59.739502 69.432129,59.206429 70.407516,58.633709 
	C74.140709,56.441700 77.870148,54.239902 81.659920,52.148556 
	C85.821960,49.851772 87.449455,50.774426 88.296959,55.786327 
	C90.468521,68.628319 90.663307,81.623848 91.279175,94.585754 
	C91.355988,96.202271 91.289665,97.825584 92.408356,99.942863 
	C99.323296,91.593697 106.238235,83.244530 113.235435,74.796051 
	C107.361099,74.199402 103.525032,76.784943 101.139679,82.550331 
	C100.295395,84.590973 100.418022,88.518311 96.654541,86.775711 
	C93.345245,85.243401 94.312843,81.923103 95.534096,79.319351 
	C98.161812,73.716972 102.995125,70.399384 108.515259,68.213058 
	C111.692337,66.954727 112.007233,65.320930 110.823807,62.475128 
	C97.253937,29.843626 55.065010,22.795755 33.242565,46.686325 
	C14.838727,66.834305 21.797037,104.466179 52.813976,112.145294 
	C56.775059,113.125977 60.751122,112.757309 64.735146,112.481163 
	C66.028000,112.391548 67.425827,111.922333 68.243530,113.481964 
	C62.601780,120.605759 38.991440,118.221992 26.914238,109.146530 
M152.527054,55.422287 
	C159.017822,52.399754 165.491409,54.225071 171.915344,54.528751 
	C172.225052,59.222786 169.673691,62.191544 168.653214,66.206512 
	C178.570908,63.495857 186.221039,59.191242 189.025391,49.117905 
	C191.750519,39.329174 184.464966,31.880384 174.458359,33.981632 
	C167.629959,35.415497 161.544296,38.388153 155.890869,42.276646 
	C146.164841,48.966324 137.371262,56.687809 129.400574,66.750832 
	C138.588409,68.141518 146.862091,68.020821 155.112778,67.695465 
	C158.026611,67.580566 158.495819,64.874428 158.791901,62.499584 
	C159.078827,60.198154 158.276535,58.633492 155.762405,58.193264 
	C154.464462,57.965992 153.136505,57.586166 152.527054,55.422287 
M126.447029,75.973587 
	C126.912361,85.490097 127.377701,95.006615 127.916451,106.024475 
	C137.775787,95.734993 146.180420,86.419830 153.409637,74.345711 
	C146.706131,74.345711 141.572357,74.165344 136.459106,74.411285 
	C133.234161,74.566399 129.836197,73.051186 126.447029,75.973587 
z"/>
<path fill="#F1F6F9" opacity="1.000000" stroke="none" 
	d="
M334.957092,117.037384 
	C334.199158,105.482895 337.386902,94.717300 339.163940,83.761314 
	C339.558777,81.327011 339.984955,78.897774 339.651276,76.028778 
	C334.123627,82.794220 328.577209,89.544464 323.074127,96.329849 
	C318.563110,101.892021 314.127197,107.515228 309.603485,113.066940 
	C308.568939,114.336563 307.594635,115.880440 305.820618,116.161095 
	C303.160706,116.581902 301.005280,116.340706 301.979218,112.595871 
	C304.884705,101.424217 301.015747,91.013687 298.714661,79.441727 
	C292.320221,86.724678 286.488190,93.066437 280.036377,98.763153 
	C266.214752,110.967140 250.682724,118.925545 231.572968,117.323593 
	C200.896545,114.752014 189.054825,88.599380 197.307999,67.482483 
	C202.192337,54.985180 212.221741,48.782265 225.091553,46.684254 
	C240.224182,44.217365 253.821594,47.724358 265.866241,57.238338 
	C268.611053,59.406425 271.549072,61.349358 274.154266,63.669739 
	C277.246002,66.423447 280.291534,67.367027 284.041443,64.988235 
	C285.103607,64.314430 286.548492,64.141151 287.848022,63.976826 
	C288.884308,63.845779 289.798309,64.380852 290.242432,65.418198 
	C290.730164,66.557541 290.168518,67.451630 289.258606,67.948006 
	C284.731293,70.417809 280.269958,73.057571 275.560883,75.126480 
	C272.811707,76.334312 270.245636,75.187492 267.915497,72.977882 
	C260.015350,65.486435 251.241455,59.263748 241.202515,54.808453 
	C223.919113,47.138042 210.986282,54.790874 206.145630,64.461296 
	C199.510239,77.717209 204.098999,95.030983 217.071106,103.180618 
	C233.989899,113.809753 250.723251,111.415833 266.944336,101.464035 
	C278.336121,94.475090 287.085693,84.644455 295.024963,74.039238 
	C296.578003,71.964668 296.486969,69.898712 296.047455,67.456787 
	C293.601044,53.863808 296.605743,41.371357 304.125153,29.889515 
	C305.536102,27.735039 307.391052,26.166927 309.957092,25.471071 
	C315.480286,23.973278 318.585266,25.955040 319.466431,31.625834 
	C320.424255,37.790009 318.794128,43.539635 316.438995,49.099464 
	C314.817169,52.928097 313.301056,56.941120 310.900116,60.267139 
	C307.357941,65.174149 307.758209,69.907379 309.329315,75.270798 
	C311.281891,81.936676 312.594086,88.790138 314.183594,95.565765 
	C316.510590,95.705139 317.227814,94.017029 318.208252,92.821175 
	C332.037201,75.953896 345.249878,58.575859 359.730225,42.250565 
	C366.855988,34.216873 375.168030,27.997919 386.573364,27.709209 
	C387.539398,27.684755 388.512665,27.945272 389.900146,28.128563 
	C389.651367,33.870243 387.549316,38.905754 385.516144,43.875637 
	C384.434021,46.520817 381.902252,45.435642 379.845947,44.975300 
	C378.679565,38.085354 376.476654,37.137909 370.341553,41.057110 
	C363.390137,45.497814 359.499054,52.331299 356.938263,59.825745 
	C351.964386,74.382454 349.971436,89.599533 347.730804,104.743004 
	C347.281921,107.776962 348.457153,108.688774 351.453827,107.777779 
	C353.571869,107.133881 356.101715,106.138474 357.468964,110.336639 
	C349.876984,112.284378 343.522308,117.550438 334.957092,117.037384 
M305.589600,43.190449 
	C305.287079,46.651005 305.047821,50.107475 306.117798,53.512589 
	C308.212769,47.280323 311.507629,41.293457 309.589417,33.504616 
	C306.876282,36.604809 306.504059,39.569794 305.589600,43.190449 
z"/>
</svg>